%FSLAX23Y23*%
%MOIN*%
G70*
G01*
G75*
G04 Layer_Physical_Order=2*
G04 Layer_Color=16711680*
%ADD10R,0.118X0.059*%
%ADD11R,0.118X0.039*%
%ADD12R,0.020X0.024*%
%ADD13R,0.024X0.020*%
%ADD14C,0.010*%
%ADD15C,0.060*%
%ADD16C,0.236*%
%ADD17C,0.039*%
G36*
X1260Y895D02*
Y-55D01*
X-65D01*
X-75Y-45D01*
X-70Y900D01*
X1255D01*
X1260Y895D01*
D02*
G37*
%LPC*%
G36*
X1220Y875D02*
X10D01*
X4Y874D01*
X-1Y871D01*
X-6Y866D01*
X-9Y861D01*
X-10Y855D01*
Y10D01*
X-10Y10D01*
X-10D01*
X-9Y4D01*
X-6Y-1D01*
X-1Y-6D01*
X4Y-9D01*
X10Y-10D01*
X1220D01*
X1226Y-9D01*
X1231Y-6D01*
X1234Y-1D01*
X1235Y5D01*
X1235Y5D01*
X1235Y5D01*
Y5D01*
Y860D01*
X1234Y866D01*
X1231Y871D01*
X1226Y874D01*
X1220Y875D01*
D02*
G37*
%LPD*%
G36*
X1205Y20D02*
X200D01*
X199Y25D01*
X210Y28D01*
X228Y36D01*
X246Y46D01*
X261Y59D01*
X274Y74D01*
X285Y92D01*
X292Y110D01*
X297Y130D01*
X299Y150D01*
X297Y170D01*
X292Y190D01*
X285Y208D01*
X274Y226D01*
X261Y241D01*
X246Y254D01*
X228Y264D01*
X210Y272D01*
X190Y277D01*
X170Y279D01*
X150Y277D01*
X130Y272D01*
X112Y264D01*
X94Y254D01*
X79Y241D01*
X66Y226D01*
X56Y208D01*
X48Y190D01*
X43Y170D01*
X41Y150D01*
X43Y130D01*
X48Y110D01*
X56Y92D01*
X66Y74D01*
X79Y59D01*
X94Y46D01*
X112Y36D01*
X130Y28D01*
X141Y25D01*
X140Y20D01*
X20D01*
Y845D01*
X1205D01*
Y20D01*
D02*
G37*
%LPC*%
G36*
X540Y185D02*
X530Y184D01*
X520Y180D01*
X511Y174D01*
X505Y165D01*
X501Y155D01*
X500Y145D01*
X501Y135D01*
X505Y125D01*
X511Y116D01*
X520Y110D01*
X530Y106D01*
X540Y105D01*
X550Y106D01*
X560Y110D01*
X569Y116D01*
X575Y125D01*
X579Y135D01*
X580Y145D01*
X579Y155D01*
X575Y165D01*
X569Y174D01*
X560Y180D01*
X550Y184D01*
X540Y185D01*
D02*
G37*
G36*
X170Y829D02*
X150Y827D01*
X130Y822D01*
X112Y814D01*
X94Y804D01*
X79Y791D01*
X66Y776D01*
X56Y758D01*
X48Y740D01*
X43Y720D01*
X41Y700D01*
X43Y680D01*
X48Y660D01*
X56Y642D01*
X66Y624D01*
X79Y609D01*
X94Y596D01*
X112Y586D01*
X130Y578D01*
X150Y573D01*
X170Y571D01*
X190Y573D01*
X210Y578D01*
X228Y586D01*
X246Y596D01*
X261Y609D01*
X274Y624D01*
X285Y642D01*
X292Y660D01*
X297Y680D01*
X299Y700D01*
X297Y720D01*
X292Y740D01*
X285Y758D01*
X274Y776D01*
X261Y791D01*
X246Y804D01*
X228Y814D01*
X210Y822D01*
X190Y827D01*
X170Y829D01*
D02*
G37*
G36*
X535Y736D02*
X530Y735D01*
X520Y731D01*
X511Y725D01*
X505Y716D01*
X501Y707D01*
X500Y701D01*
X535D01*
Y736D01*
D02*
G37*
G36*
X545D02*
Y701D01*
X580D01*
X579Y707D01*
X575Y716D01*
X569Y725D01*
X560Y731D01*
X550Y735D01*
X545Y736D01*
D02*
G37*
G36*
X535Y691D02*
X500D01*
X501Y686D01*
X505Y676D01*
X511Y668D01*
X520Y661D01*
X530Y657D01*
X535Y656D01*
Y691D01*
D02*
G37*
G36*
X580D02*
X545D01*
Y656D01*
X550Y657D01*
X560Y661D01*
X569Y668D01*
X575Y676D01*
X579Y686D01*
X580Y691D01*
D02*
G37*
%LPD*%
D15*
X540Y696D02*
D03*
Y145D02*
D03*
D16*
X170Y700D02*
D03*
Y150D02*
D03*
D17*
X259Y700D02*
D03*
X233Y637D02*
D03*
X170Y611D02*
D03*
X107Y637D02*
D03*
X81Y700D02*
D03*
X170Y789D02*
D03*
X233Y763D02*
D03*
X107D02*
D03*
X259Y150D02*
D03*
X233Y87D02*
D03*
X170Y61D02*
D03*
X107Y87D02*
D03*
X81Y150D02*
D03*
X170Y239D02*
D03*
X233Y213D02*
D03*
X107D02*
D03*
M02*
