%FSLAX23Y23*%
%MOIN*%
G70*
G01*
G75*
G04 Layer_Color=8388736*
%ADD10R,0.118X0.059*%
%ADD11R,0.118X0.039*%
%ADD12R,0.020X0.024*%
%ADD13R,0.024X0.020*%
%ADD14C,0.010*%
%ADD15C,0.060*%
%ADD16C,0.236*%
%ADD17C,0.039*%
%ADD18C,0.005*%
%ADD19C,0.059*%
%ADD20C,0.006*%
%ADD21R,0.126X0.067*%
%ADD22R,0.126X0.047*%
%ADD23R,0.028X0.032*%
%ADD24R,0.032X0.028*%
%ADD25C,0.068*%
D16*
X170Y700D02*
D03*
Y150D02*
D03*
D17*
X259Y700D02*
D03*
X233Y637D02*
D03*
X170Y611D02*
D03*
X107Y637D02*
D03*
X81Y700D02*
D03*
X170Y789D02*
D03*
X233Y763D02*
D03*
X107D02*
D03*
X259Y150D02*
D03*
X233Y87D02*
D03*
X170Y61D02*
D03*
X107Y87D02*
D03*
X81Y150D02*
D03*
X170Y239D02*
D03*
X233Y213D02*
D03*
X107D02*
D03*
D19*
X259Y700D02*
G03*
X259Y700I-89J0D01*
G01*
Y150D02*
G03*
X259Y150I-89J0D01*
G01*
D20*
X660Y86D02*
Y55D01*
X676D01*
X681Y60D01*
Y81D01*
X676Y86D01*
X660D01*
X691Y55D02*
X702D01*
X697D01*
Y76D01*
X691D01*
X728Y45D02*
X733D01*
X739Y50D01*
Y76D01*
X723D01*
X718Y71D01*
Y60D01*
X723Y55D01*
X739D01*
X749D02*
X760D01*
X754D01*
Y76D01*
X749D01*
X781Y81D02*
Y76D01*
X775D01*
X786D01*
X781D01*
Y60D01*
X786Y55D01*
X807Y76D02*
X817D01*
X823Y71D01*
Y55D01*
X807D01*
X802Y60D01*
X807Y65D01*
X823D01*
X833Y55D02*
X844D01*
X838D01*
Y86D01*
X833D01*
X891D02*
Y65D01*
X901Y55D01*
X912Y65D01*
Y86D01*
X922Y55D02*
X933D01*
X928D01*
Y76D01*
X922D01*
X949Y86D02*
Y55D01*
X964D01*
X970Y60D01*
Y65D01*
Y71D01*
X964Y76D01*
X949D01*
X980D02*
Y55D01*
Y65D01*
X985Y71D01*
X991Y76D01*
X996D01*
X1017D02*
X1027D01*
X1033Y71D01*
Y55D01*
X1017D01*
X1012Y60D01*
X1017Y65D01*
X1033D01*
X1048Y81D02*
Y76D01*
X1043D01*
X1054D01*
X1048D01*
Y60D01*
X1054Y55D01*
X1069D02*
X1080D01*
X1075D01*
Y76D01*
X1069D01*
X1101Y55D02*
X1111D01*
X1117Y60D01*
Y71D01*
X1111Y76D01*
X1101D01*
X1096Y71D01*
Y60D01*
X1101Y55D01*
X1127D02*
Y76D01*
X1143D01*
X1148Y71D01*
Y55D01*
D21*
X1147Y245D02*
D03*
Y575D02*
D03*
D22*
X950Y489D02*
D03*
Y331D02*
D03*
Y410D02*
D03*
Y489D02*
D03*
D23*
X750Y500D02*
D03*
Y540D02*
D03*
Y395D02*
D03*
Y435D02*
D03*
D24*
X750Y325D02*
D03*
X790D02*
D03*
D25*
X540Y696D02*
D03*
Y145D02*
D03*
M02*
