%FSLAX23Y23*%
%MOIN*%
G70*
G01*
G75*
%ADD10C,0.004*%
%ADD11C,0.005*%
%ADD12C,0.007*%
D10*
X738Y498D02*
X762D01*
X738Y542D02*
X762D01*
X738Y498D02*
Y542D01*
X762Y498D02*
Y542D01*
X738Y393D02*
X762D01*
X738Y437D02*
X762D01*
X738Y393D02*
Y437D01*
X762Y393D02*
Y437D01*
X748Y313D02*
Y337D01*
X792Y313D02*
Y337D01*
X748D02*
X792D01*
X748Y313D02*
X792D01*
X736Y485D02*
X764D01*
X736Y555D02*
X764D01*
X736Y485D02*
Y555D01*
X764Y485D02*
Y555D01*
X750Y508D02*
Y532D01*
X738Y520D02*
X762D01*
X736Y380D02*
X764D01*
X736Y450D02*
X764D01*
X736Y380D02*
Y450D01*
X764Y380D02*
Y450D01*
X750Y403D02*
Y427D01*
X738Y415D02*
X762D01*
X735Y311D02*
Y339D01*
X805Y311D02*
Y339D01*
X735D02*
X805D01*
X735Y311D02*
X805D01*
X758Y325D02*
X782D01*
X770Y313D02*
Y337D01*
D11*
X525Y696D02*
X555D01*
X540Y681D02*
Y711D01*
X525Y145D02*
X555D01*
X540Y130D02*
Y160D01*
X111Y700D02*
X229D01*
X170Y641D02*
Y759D01*
X249Y700D02*
X268D01*
X259Y690D02*
Y710D01*
X223Y637D02*
X242D01*
X233Y628D02*
Y647D01*
X160Y611D02*
X180D01*
X170Y602D02*
Y621D01*
X98Y637D02*
X117D01*
X107Y628D02*
Y647D01*
X72Y700D02*
X91D01*
X81Y690D02*
Y710D01*
X160Y789D02*
X180D01*
X170Y779D02*
Y798D01*
X223Y763D02*
X242D01*
X233Y753D02*
Y772D01*
X98Y763D02*
X117D01*
X107Y753D02*
Y772D01*
X111Y150D02*
X229D01*
X170Y91D02*
Y209D01*
X249Y150D02*
X268D01*
X259Y140D02*
Y160D01*
X223Y87D02*
X242D01*
X233Y78D02*
Y97D01*
X160Y61D02*
X180D01*
X170Y52D02*
Y71D01*
X98Y87D02*
X117D01*
X107Y78D02*
Y97D01*
X72Y150D02*
X91D01*
X81Y140D02*
Y160D01*
X160Y239D02*
X180D01*
X170Y229D02*
Y248D01*
X223Y213D02*
X242D01*
X233Y203D02*
Y222D01*
X98Y213D02*
X117D01*
X107Y203D02*
Y222D01*
M02*
